# xmcd
#
# Track frame offsets:
#  150
#  11105
#  24542
#  35022
#  46672
#  59995
#  72740
#  87570
#  106575
#  117855
#  129727
#  143927
#  156402
#  165905
#  175442
#
# Disc length: 2541 seconds
#
# Revision: 0
# Processed by: cddbd v1.5.2PL0 Copyright (c) Steve Scherf et al.
# Submitted via: Collectorz.com_Music_Collector 6.11
#
DISCID=d909eb0f
DTITLE=Susan McCann - Part Of Me
DYEAR=1998
DGENRE=Vocal
TTITLE0=They'll Never Take Her Love From Me
TTITLE1=Lie To Linda
TTITLE2=Once A Day
TTITLE3=Pretty Paper
TTITLE4=Have I Told You Lately That I Love You?
TTITLE5=When The Sun Says Goodbye To The Mountain
TTITLE6=Could I Have Thas Dance
TTITLE7=Part Of Me
TTITLE8=Wild Side Of Life
TTITLE9=Could It Be I Don't Belong Here Anymore
TTITLE10=Baby Blue
TTITLE11=I Don't Wanna Play More
TTITLE12=Do You Hear The Robins Sing
TTITLE13=Wrong Road Again
TTITLE14=Sing Me An Old Fashioned Song
EXTD=
EXTT0=
EXTT1=
EXTT2=
EXTT3=
EXTT4=
EXTT5=
EXTT6=
EXTT7=
EXTT8=
EXTT9=
EXTT10=
EXTT11=
EXTT12=
EXTT13=
EXTT14=
PLAYORDER=
